<svg width="24" height="24" viewBox="0 0 24 24" fill="none" xmlns="http://www.w3.org/2000/svg">
<path d="M14.5 16.75H9.5C9.09 16.75 8.75 16.41 8.75 16C8.75 15.59 9.09 15.25 9.5 15.25H14.5C14.91 15.25 15.25 15.59 15.25 16C15.25 16.41 14.91 16.75 14.5 16.75Z" fill="#A9A9A9"/>
<path d="M5.2 10.46C5.01 10.46 4.82 10.38 4.67 10.24C4.46 10.03 4.39 9.7 4.51 9.42L6.37 4.98C6.41 4.89 6.43 4.83 6.46 4.78C7.94 1.37 9.83 0.539999 13.17 1.82C13.36 1.89 13.51 2.04 13.59 2.23C13.67 2.42 13.67 2.63 13.59 2.82L10.66 9.62C10.54 9.89 10.27 10.07 9.97 10.07H7.12C6.55 10.07 6.01 10.18 5.49 10.4C5.4 10.44 5.3 10.46 5.2 10.46ZM10.61 2.75C9.37 2.75 8.61 3.56 7.82 5.4C7.81 5.43 7.79 5.46 7.78 5.49L6.47 8.6C6.69 8.58 6.9 8.57 7.12 8.57H9.47L11.88 2.97C11.41 2.82 10.99 2.75 10.61 2.75Z" fill="#A9A9A9"/>
<path d="M18.29 10.27C18.22 10.27 18.14 10.26 18.07 10.24C17.7 10.13 17.29 10.07 16.87 10.07H9.97C9.72 10.07 9.48 9.93999 9.34 9.72999C9.21 9.51999 9.18 9.24999 9.28 9.01999L12.18 2.28999C12.33 1.92999 12.76 1.68999 13.14 1.80999C13.26 1.84999 13.37 1.89999 13.49 1.94999L15.85 2.93999C17.23 3.50999 18.15 4.10999 18.75 4.82999C18.87 4.96999 18.97 5.11999 19.06 5.26999C19.17 5.43999 19.27 5.64999 19.34 5.85999C19.37 5.92999 19.42 6.05999 19.45 6.19999C19.73 7.13999 19.59 8.30999 18.99 9.80999C18.87 10.09 18.59 10.27 18.29 10.27ZM11.11 8.56999H16.88C17.2 8.56999 17.51 8.59999 17.82 8.64999C18.1 7.77999 18.16 7.10999 18 6.56999C17.98 6.47999 17.96 6.43999 17.95 6.39999C17.89 6.23999 17.85 6.14999 17.8 6.06999C17.73 5.95999 17.68 5.86999 17.6 5.77999C17.17 5.25999 16.41 4.77999 15.28 4.31999L13.3 3.48999L11.11 8.56999Z" fill="#A9A9A9"/>
<path d="M15.9 22.75H8.1C7.82 22.75 7.56 22.73 7.3 22.7C3.79 22.46 1.79 20.46 1.55 16.91C1.52 16.69 1.5 16.42 1.5 16.15V14.2C1.5 11.95 2.84 9.92001 4.91 9.02001C5.61 8.72001 6.36 8.57001 7.13 8.57001H16.89C17.46 8.57001 18.01 8.65001 18.52 8.81001C20.87 9.52001 22.52 11.74 22.52 14.2V16.15C22.52 16.37 22.51 16.58 22.5 16.78C22.28 20.69 20 22.75 15.9 22.75ZM7.12 10.07C6.55 10.07 6.01 10.18 5.49 10.4C3.97 11.06 2.99 12.55 2.99 14.2V16.15C2.99 16.36 3.01 16.57 3.03 16.77C3.22 19.62 4.62 21.02 7.43 21.21C7.68 21.24 7.88 21.26 8.09 21.26H15.89C19.19 21.26 20.81 19.81 20.97 16.71C20.98 16.53 20.99 16.35 20.99 16.15V14.2C20.99 12.39 19.78 10.77 18.06 10.24C17.69 10.13 17.28 10.07 16.86 10.07H7.12Z" fill="#A9A9A9"/>
<path d="M2.24 14.95C1.83 14.95 1.49 14.61 1.49 14.2V11.27C1.49 8.12001 3.72 5.40001 6.8 4.80001C7.07 4.75001 7.35 4.85001 7.53 5.06001C7.7 5.27001 7.75 5.57001 7.64 5.82001L5.89 10C5.81 10.18 5.67 10.32 5.5 10.4C3.98 11.06 3 12.55 3 14.2C2.99 14.61 2.66 14.95 2.24 14.95ZM5.6 6.82001C4.32 7.54001 3.39 8.80001 3.1 10.27C3.54 9.82001 4.05 9.44001 4.63 9.16001L5.6 6.82001Z" fill="#A9A9A9"/>
<path d="M21.76 14.95C21.35 14.95 21.01 14.61 21.01 14.2C21.01 12.39 19.8 10.77 18.08 10.24C17.88 10.18 17.71 10.04 17.62 9.84999C17.53 9.65999 17.52 9.43999 17.6 9.24999C18.07 8.07999 18.19 7.22999 18 6.56999C17.98 6.47999 17.96 6.43999 17.95 6.39999C17.82 6.10999 17.89 5.76999 18.12 5.54999C18.35 5.32999 18.7 5.27999 18.98 5.42999C21.16 6.56999 22.51 8.80999 22.51 11.27V14.2C22.51 14.61 22.17 14.95 21.76 14.95ZM19.25 9.08999C19.88 9.37999 20.44 9.78999 20.91 10.28C20.72 9.29999 20.25 8.40999 19.56 7.70999C19.51 8.12999 19.41 8.58999 19.25 9.08999Z" fill="#A9A9A9"/>
</svg>
