<svg width="235" height="41" viewBox="0 0 235 41" fill="none" xmlns="http://www.w3.org/2000/svg">
<path d="M72.8029 17.0742H69.5366C69.4769 16.6516 69.3551 16.2763 69.1712 15.9482C68.9872 15.6151 68.7511 15.3317 68.4627 15.098C68.1744 14.8643 67.8413 14.6854 67.4634 14.5611C67.0906 14.4368 66.6854 14.3746 66.2479 14.3746C65.4574 14.3746 64.7688 14.571 64.1822 14.9638C63.5955 15.3516 63.1406 15.9183 62.8175 16.6641C62.4943 17.4048 62.3327 18.3047 62.3327 19.3636C62.3327 20.4524 62.4943 21.3672 62.8175 22.108C63.1456 22.8487 63.603 23.408 64.1896 23.7859C64.7763 24.1637 65.4549 24.3526 66.2255 24.3526C66.658 24.3526 67.0582 24.2955 67.4261 24.1811C67.799 24.0668 68.1296 23.9002 68.418 23.6815C68.7063 23.4577 68.945 23.1868 69.1339 22.8686C69.3278 22.5504 69.462 22.1875 69.5366 21.7798L72.8029 21.7947C72.7184 22.4957 72.5071 23.1719 72.169 23.8232C71.8359 24.4695 71.386 25.0487 70.8192 25.5607C70.2575 26.0678 69.5863 26.4705 68.8058 26.7688C68.0302 27.0621 67.1527 27.2088 66.1733 27.2088C64.8111 27.2088 63.593 26.9006 62.5192 26.2841C61.4503 25.6676 60.6051 24.7752 59.9837 23.6069C59.3672 22.4386 59.0589 21.0241 59.0589 19.3636C59.0589 17.6982 59.3722 16.2812 59.9986 15.1129C60.625 13.9446 61.4751 13.0547 62.549 12.4432C63.6229 11.8267 64.831 11.5185 66.1733 11.5185C67.0582 11.5185 67.8786 11.6428 68.6342 11.8913C69.3949 12.1399 70.0685 12.5028 70.6552 12.9801C71.2418 13.4524 71.7191 14.0316 72.087 14.7177C72.4599 15.4038 72.6985 16.1893 72.8029 17.0742ZM75.0588 27V15.5455H78.1387V17.544H78.258C78.4668 16.8331 78.8173 16.2962 79.3095 15.9332C79.8017 15.5653 80.3684 15.3814 81.0098 15.3814C81.1689 15.3814 81.3404 15.3913 81.5243 15.4112C81.7083 15.4311 81.8699 15.4585 82.0091 15.4933V18.3121C81.8599 18.2674 81.6536 18.2276 81.3901 18.1928C81.1266 18.158 80.8855 18.1406 80.6667 18.1406C80.1994 18.1406 79.7818 18.2425 79.4139 18.4464C79.051 18.6452 78.7626 18.9237 78.5488 19.2816C78.34 19.6396 78.2356 20.0522 78.2356 20.5195V27H75.0588ZM85.9615 31.2955C85.5588 31.2955 85.1809 31.2631 84.8279 31.1985C84.4799 31.1388 84.1916 31.0618 83.9629 30.9673L84.6788 28.5959C85.0517 28.7102 85.3873 28.7724 85.6855 28.7823C85.9888 28.7923 86.2498 28.7227 86.4686 28.5735C86.6923 28.4244 86.8738 28.1708 87.013 27.8129L87.1994 27.3281L83.0904 15.5455H86.4313L88.8027 23.9574H88.9221L91.3159 15.5455H94.6792L90.2271 28.2379C90.0133 28.8544 89.7225 29.3913 89.3546 29.8487C88.9917 30.3111 88.5318 30.6665 87.975 30.9151C87.4181 31.1687 86.747 31.2955 85.9615 31.2955ZM96.3049 31.2955V15.5455H99.437V17.4695H99.5787C99.7179 17.1612 99.9192 16.848 100.183 16.5298C100.451 16.2067 100.799 15.9382 101.227 15.7244C101.659 15.5057 102.196 15.3963 102.838 15.3963C103.673 15.3963 104.443 15.6151 105.149 16.0526C105.855 16.4851 106.42 17.1388 106.842 18.0138C107.265 18.8839 107.476 19.9751 107.476 21.2876C107.476 22.5653 107.27 23.6442 106.857 24.5241C106.449 25.3991 105.893 26.0629 105.187 26.5153C104.486 26.9627 103.7 27.1864 102.83 27.1864C102.214 27.1864 101.689 27.0845 101.257 26.8807C100.829 26.6768 100.479 26.4208 100.205 26.1126C99.9316 25.7994 99.7228 25.4837 99.5787 25.1655H99.4817V31.2955H96.3049ZM99.4146 21.2727C99.4146 21.9538 99.5091 22.5479 99.698 23.055C99.8869 23.5621 100.16 23.9574 100.518 24.2408C100.876 24.5192 101.311 24.6584 101.823 24.6584C102.34 24.6584 102.778 24.5167 103.136 24.2333C103.494 23.945 103.765 23.5472 103.949 23.0401C104.138 22.5281 104.232 21.9389 104.232 21.2727C104.232 20.6115 104.14 20.0298 103.956 19.5277C103.772 19.0256 103.501 18.6328 103.143 18.3494C102.785 18.0661 102.345 17.9244 101.823 17.9244C101.306 17.9244 100.869 18.0611 100.511 18.3345C100.158 18.608 99.8869 18.9957 99.698 19.4979C99.5091 20 99.4146 20.5916 99.4146 21.2727ZM115.687 15.5455V17.9318H108.789V15.5455H115.687ZM110.355 12.8011H113.531V23.4801C113.531 23.7734 113.576 24.0021 113.666 24.1662C113.755 24.3253 113.879 24.4371 114.039 24.5018C114.203 24.5664 114.392 24.5987 114.605 24.5987C114.754 24.5987 114.904 24.5863 115.053 24.5614C115.202 24.5316 115.316 24.5092 115.396 24.4943L115.895 26.8583C115.736 26.908 115.513 26.9652 115.224 27.0298C114.936 27.0994 114.585 27.1417 114.173 27.1566C113.407 27.1864 112.736 27.0845 112.159 26.8509C111.588 26.6172 111.143 26.2543 110.824 25.7621C110.506 25.2699 110.35 24.6484 110.355 23.8977V12.8011ZM122.808 27.2237C121.65 27.2237 120.648 26.9776 119.803 26.4854C118.963 25.9883 118.314 25.2972 117.857 24.4123C117.399 23.5224 117.171 22.4908 117.171 21.3175C117.171 20.1342 117.399 19.1001 117.857 18.2152C118.314 17.3253 118.963 16.6342 119.803 16.142C120.648 15.6449 121.65 15.3963 122.808 15.3963C123.967 15.3963 124.966 15.6449 125.806 16.142C126.651 16.6342 127.303 17.3253 127.76 18.2152C128.218 19.1001 128.446 20.1342 128.446 21.3175C128.446 22.4908 128.218 23.5224 127.76 24.4123C127.303 25.2972 126.651 25.9883 125.806 26.4854C124.966 26.9776 123.967 27.2237 122.808 27.2237ZM122.823 24.7628C123.35 24.7628 123.79 24.6136 124.143 24.3153C124.496 24.0121 124.762 23.5994 124.941 23.0774C125.125 22.5554 125.217 21.9613 125.217 21.2951C125.217 20.6289 125.125 20.0348 124.941 19.5128C124.762 18.9908 124.496 18.5781 124.143 18.2749C123.79 17.9716 123.35 17.82 122.823 17.82C122.291 17.82 121.844 17.9716 121.481 18.2749C121.123 18.5781 120.852 18.9908 120.668 19.5128C120.489 20.0348 120.4 20.6289 120.4 21.2951C120.4 21.9613 120.489 22.5554 120.668 23.0774C120.852 23.5994 121.123 24.0121 121.481 24.3153C121.844 24.6136 122.291 24.7628 122.823 24.7628ZM144.047 17.0742H140.781C140.721 16.6516 140.599 16.2763 140.415 15.9482C140.231 15.6151 139.995 15.3317 139.707 15.098C139.419 14.8643 139.085 14.6854 138.708 14.5611C138.335 14.4368 137.93 14.3746 137.492 14.3746C136.702 14.3746 136.013 14.571 135.426 14.9638C134.84 15.3516 134.385 15.9183 134.062 16.6641C133.738 17.4048 133.577 18.3047 133.577 19.3636C133.577 20.4524 133.738 21.3672 134.062 22.108C134.39 22.8487 134.847 23.408 135.434 23.7859C136.02 24.1637 136.699 24.3526 137.47 24.3526C137.902 24.3526 138.302 24.2955 138.67 24.1811C139.043 24.0668 139.374 23.9002 139.662 23.6815C139.95 23.4577 140.189 23.1868 140.378 22.8686C140.572 22.5504 140.706 22.1875 140.781 21.7798L144.047 21.7947C143.963 22.4957 143.751 23.1719 143.413 23.8232C143.08 24.4695 142.63 25.0487 142.063 25.5607C141.502 26.0678 140.83 26.4705 140.05 26.7688C139.274 27.0621 138.397 27.2088 137.417 27.2088C136.055 27.2088 134.837 26.9006 133.763 26.2841C132.694 25.6676 131.849 24.7752 131.228 23.6069C130.611 22.4386 130.303 21.0241 130.303 19.3636C130.303 17.6982 130.616 16.2812 131.243 15.1129C131.869 13.9446 132.719 13.0547 133.793 12.4432C134.867 11.8267 136.075 11.5185 137.417 11.5185C138.302 11.5185 139.123 11.6428 139.878 11.8913C140.639 12.1399 141.313 12.5028 141.899 12.9801C142.486 13.4524 142.963 14.0316 143.331 14.7177C143.704 15.4038 143.943 16.1893 144.047 17.0742ZM149.569 27.2163C148.838 27.2163 148.187 27.0895 147.615 26.8359C147.044 26.5774 146.591 26.1971 146.258 25.695C145.93 25.1879 145.766 24.5565 145.766 23.8008C145.766 23.1644 145.883 22.63 146.116 22.1974C146.35 21.7649 146.668 21.4169 147.071 21.1534C147.474 20.8899 147.931 20.6911 148.443 20.5568C148.96 20.4226 149.502 20.3281 150.069 20.2734C150.735 20.2038 151.272 20.1392 151.68 20.0795C152.087 20.0149 152.383 19.9205 152.567 19.7962C152.751 19.6719 152.843 19.4879 152.843 19.2443V19.1996C152.843 18.7273 152.694 18.3619 152.396 18.1033C152.102 17.8448 151.685 17.7156 151.143 17.7156C150.571 17.7156 150.116 17.8423 149.778 18.0959C149.44 18.3445 149.216 18.6577 149.107 19.0355L146.169 18.7969C146.318 18.1009 146.611 17.4993 147.049 16.9922C147.486 16.4801 148.05 16.0874 148.741 15.8139C149.438 15.5355 150.243 15.3963 151.158 15.3963C151.794 15.3963 152.403 15.4709 152.985 15.62C153.571 15.7692 154.091 16.0004 154.543 16.3136C155.001 16.6268 155.361 17.0295 155.625 17.5217C155.888 18.0089 156.02 18.593 156.02 19.2741V27H153.007V25.4116H152.918C152.734 25.7695 152.488 26.0852 152.179 26.3587C151.871 26.6271 151.501 26.8384 151.068 26.9925C150.636 27.1417 150.136 27.2163 149.569 27.2163ZM150.479 25.0238C150.946 25.0238 151.359 24.9318 151.717 24.7479C152.075 24.5589 152.356 24.3054 152.56 23.9872C152.763 23.669 152.865 23.3086 152.865 22.9059V21.6903C152.766 21.755 152.629 21.8146 152.455 21.8693C152.286 21.919 152.095 21.9663 151.881 22.011C151.667 22.0508 151.453 22.0881 151.24 22.1229C151.026 22.1527 150.832 22.18 150.658 22.2049C150.285 22.2596 149.96 22.3466 149.681 22.4659C149.403 22.5852 149.186 22.7468 149.032 22.9506C148.878 23.1495 148.801 23.3981 148.801 23.6964C148.801 24.1289 148.958 24.4595 149.271 24.6882C149.589 24.9119 149.992 25.0238 150.479 25.0238ZM168.015 18.8118L165.107 18.9908C165.057 18.7422 164.95 18.5185 164.786 18.3196C164.622 18.1158 164.406 17.9542 164.137 17.8349C163.874 17.7106 163.558 17.6484 163.19 17.6484C162.698 17.6484 162.283 17.7528 161.945 17.9616C161.607 18.1655 161.438 18.4389 161.438 18.782C161.438 19.0554 161.547 19.2866 161.766 19.4755C161.985 19.6644 162.36 19.8161 162.892 19.9304L164.965 20.348C166.079 20.5767 166.909 20.9446 167.456 21.4517C168.003 21.9588 168.276 22.625 168.276 23.4503C168.276 24.201 168.055 24.8597 167.612 25.4265C167.175 25.9933 166.573 26.4357 165.808 26.7539C165.047 27.0671 164.17 27.2237 163.175 27.2237C161.659 27.2237 160.451 26.908 159.551 26.2766C158.656 25.6403 158.132 24.7752 157.977 23.6815L161.102 23.5174C161.197 23.9798 161.425 24.3327 161.788 24.5763C162.151 24.815 162.616 24.9343 163.183 24.9343C163.74 24.9343 164.187 24.8274 164.525 24.6136C164.868 24.3949 165.042 24.114 165.047 23.771C165.042 23.4826 164.92 23.2464 164.682 23.0625C164.443 22.8736 164.075 22.7294 163.578 22.63L161.594 22.2347C160.476 22.011 159.643 21.6232 159.096 21.0714C158.554 20.5195 158.283 19.8161 158.283 18.9609C158.283 18.2251 158.482 17.5913 158.88 17.0593C159.282 16.5273 159.847 16.1172 160.573 15.8288C161.303 15.5405 162.159 15.3963 163.138 15.3963C164.585 15.3963 165.723 15.7021 166.553 16.3136C167.389 16.9251 167.876 17.7578 168.015 18.8118ZM176.369 15.5455V17.9318H169.471V15.5455H176.369ZM171.037 12.8011H174.214V23.4801C174.214 23.7734 174.259 24.0021 174.348 24.1662C174.438 24.3253 174.562 24.4371 174.721 24.5018C174.885 24.5664 175.074 24.5987 175.288 24.5987C175.437 24.5987 175.586 24.5863 175.735 24.5614C175.884 24.5316 175.999 24.5092 176.078 24.4943L176.578 26.8583C176.419 26.908 176.195 26.9652 175.907 27.0298C175.619 27.0994 175.268 27.1417 174.855 27.1566C174.09 27.1864 173.419 27.0845 172.842 26.8509C172.27 26.6172 171.825 26.2543 171.507 25.7621C171.189 25.2699 171.032 24.6484 171.037 23.8977V12.8011ZM178.439 27V15.5455H181.616V27H178.439ZM180.035 14.0689C179.562 14.0689 179.157 13.9123 178.819 13.5991C178.486 13.2809 178.319 12.9006 178.319 12.4581C178.319 12.0206 178.486 11.6452 178.819 11.332C179.157 11.0138 179.562 10.8548 180.035 10.8548C180.507 10.8548 180.91 11.0138 181.243 11.332C181.581 11.6452 181.75 12.0206 181.75 12.4581C181.75 12.9006 181.581 13.2809 181.243 13.5991C180.91 13.9123 180.507 14.0689 180.035 14.0689ZM187.337 20.3778V27H184.16V15.5455H187.188V17.5664H187.322C187.576 16.9002 188.001 16.3732 188.597 15.9854C189.194 15.5927 189.917 15.3963 190.768 15.3963C191.563 15.3963 192.257 15.5703 192.848 15.9183C193.44 16.2663 193.9 16.7635 194.228 17.4098C194.556 18.0511 194.72 18.8168 194.72 19.7067V27H191.543V20.2734C191.548 19.5724 191.369 19.0256 191.006 18.6328C190.643 18.2351 190.144 18.0362 189.507 18.0362C189.08 18.0362 188.702 18.1282 188.374 18.3121C188.051 18.4961 187.797 18.7646 187.613 19.1175C187.434 19.4656 187.342 19.8857 187.337 20.3778ZM202.384 31.5341C201.355 31.5341 200.473 31.3924 199.737 31.109C199.006 30.8306 198.424 30.4503 197.992 29.968C197.559 29.4858 197.278 28.9439 197.149 28.3423L200.087 27.9471C200.177 28.1758 200.319 28.3896 200.513 28.5884C200.706 28.7873 200.962 28.9464 201.281 29.0657C201.604 29.19 201.997 29.2521 202.459 29.2521C203.15 29.2521 203.719 29.0831 204.167 28.745C204.619 28.4119 204.845 27.8526 204.845 27.0671V24.9716H204.711C204.572 25.2898 204.363 25.5906 204.085 25.8739C203.806 26.1573 203.448 26.3885 203.011 26.5675C202.573 26.7464 202.051 26.8359 201.445 26.8359C200.585 26.8359 199.802 26.6371 199.096 26.2393C198.395 25.8366 197.835 25.2227 197.418 24.3974C197.005 23.5671 196.799 22.5181 196.799 21.2504C196.799 19.9528 197.01 18.869 197.433 17.9989C197.855 17.1289 198.417 16.4776 199.118 16.0451C199.824 15.6126 200.597 15.3963 201.437 15.3963C202.079 15.3963 202.616 15.5057 203.048 15.7244C203.481 15.9382 203.829 16.2067 204.092 16.5298C204.361 16.848 204.567 17.1612 204.711 17.4695H204.83V15.5455H207.985V27.1119C207.985 28.0863 207.746 28.9016 207.269 29.5579C206.792 30.2141 206.13 30.7063 205.285 31.0344C204.445 31.3675 203.478 31.5341 202.384 31.5341ZM202.451 24.4496C202.964 24.4496 203.396 24.3228 203.749 24.0692C204.107 23.8107 204.38 23.4428 204.569 22.9656C204.763 22.4833 204.86 21.9066 204.86 21.2354C204.86 20.5643 204.766 19.9826 204.577 19.4904C204.388 18.9933 204.114 18.608 203.756 18.3345C203.399 18.0611 202.964 17.9244 202.451 17.9244C201.929 17.9244 201.489 18.0661 201.131 18.3494C200.774 18.6278 200.503 19.0156 200.319 19.5128C200.135 20.0099 200.043 20.5842 200.043 21.2354C200.043 21.8967 200.135 22.4684 200.319 22.9506C200.508 23.4279 200.778 23.7983 201.131 24.0618C201.489 24.3203 201.929 24.4496 202.451 24.4496Z" fill="white"/>
<path d="M3 13.2346C3 10.56 3.54357 8.22358 4.63071 6.22533C5.71786 4.22707 7.22778 2.68996 9.16048 1.61397C11.1234 0.537991 13.3581 0 15.8645 0C19.0958 0 21.8136 0.9069 24.0181 2.7207C26.2226 4.50375 27.6419 7.00926 28.2761 10.2372H18.8542C18.3106 8.54637 17.2536 7.70096 15.6833 7.70096C14.566 7.70096 13.6751 8.17747 13.0108 9.13048C12.3766 10.0528 12.0595 11.4208 12.0595 13.2346C12.0595 15.0484 12.3766 16.4318 13.0108 17.3848C13.6751 18.3378 14.566 18.8143 15.6833 18.8143C17.2838 18.8143 18.3408 17.9689 18.8542 16.2781H28.2761C27.6419 19.4753 26.2226 21.9808 24.0181 23.7946C21.8136 25.6084 19.0958 26.5153 15.8645 26.5153C13.3581 26.5153 11.1234 25.9773 9.16048 24.9013C7.22778 23.8253 5.71786 22.2882 4.63071 20.29C3.54357 18.2917 3 15.9399 3 13.2346Z" fill="#675AFF"/>
<path d="M44 19.7193C44 17.0447 43.4564 14.7083 42.3693 12.71C41.2821 10.7118 39.7722 9.17467 37.8395 8.09869C35.8766 7.02271 33.6419 6.48472 31.1355 6.48472C27.9042 6.48472 25.1864 7.39162 22.9819 9.20541C20.7774 10.9885 19.3581 13.494 18.7239 16.7219H28.1458C28.6894 15.0311 29.7464 14.1857 31.3167 14.1857C32.434 14.1857 33.3249 14.6622 33.9892 15.6152C34.6234 16.5375 34.9405 17.9055 34.9405 19.7193C34.9405 21.5331 34.6234 22.9165 33.9892 23.8695C33.3249 24.8225 32.434 25.299 31.3167 25.299C29.7162 25.299 28.6592 24.4536 28.1458 22.7628H18.7239C19.3581 25.96 20.7774 28.4655 22.9819 30.2793C25.1864 32.0931 27.9042 33 31.1355 33C33.6419 33 35.8766 32.462 37.8395 31.386C39.7722 30.31 41.2821 28.7729 42.3693 26.7747C43.4564 24.7764 44 22.4246 44 19.7193Z" fill="#5B20A7"/>
</svg>
