<svg width="40" height="40" viewBox="0 0 40 40" fill="none" xmlns="http://www.w3.org/2000/svg">
<rect opacity="0.2" width="40" height="40" rx="8" fill="#FFC01E"/>
<path d="M22.97 20.75H22.2H17.53V23.58H18.84H22.97C23.92 23.58 24.7 22.94 24.7 22.16C24.7 21.38 23.92 20.75 22.97 20.75Z" fill="#FFC01E"/>
<path d="M20 10C14.48 10 10 14.48 10 20C10 25.52 14.48 30 20 30C25.52 30 30 25.52 30 20C30 14.48 25.52 10 20 10ZM22.97 25.08H21.32V26.5C21.32 26.91 20.98 27.25 20.57 27.25C20.16 27.25 19.82 26.91 19.82 26.5V25.08H18.84H18.61V26.5C18.61 26.91 18.27 27.25 17.86 27.25C17.45 27.25 17.11 26.91 17.11 26.5V25.08H16.78H15.05C14.64 25.08 14.3 24.74 14.3 24.33C14.3 23.92 14.64 23.58 15.05 23.58H16.03V20V16.42H15.05C14.64 16.42 14.3 16.08 14.3 15.67C14.3 15.26 14.64 14.92 15.05 14.92H16.78H17.11V13.5C17.11 13.09 17.45 12.75 17.86 12.75C18.27 12.75 18.61 13.09 18.61 13.5V14.92H18.84H19.82V13.5C19.82 13.09 20.16 12.75 20.57 12.75C20.98 12.75 21.32 13.09 21.32 13.5V14.92H22.2C23.75 14.92 25.12 16.28 25.12 17.84C25.12 18.51 24.88 19.12 24.5 19.62C25.51 20.11 26.2 21.07 26.2 22.18C26.2 23.77 24.75 25.08 22.97 25.08Z" fill="#FFC01E"/>
<path d="M23.62 17.83C23.62 17.17 23 16.41 22.2 16.41H18.84H17.53V19.24H22.2C22.98 19.25 23.62 18.61 23.62 17.83Z" fill="#FFC01E"/>
</svg>
